PathFileType	4	(X/Y/Z)	Patient4_TMGait_0pt3_02_right_11.trc.trc
DataRate	CameraRate	NumFrames	NumMarkers	Units	OrigDataRate	OrigDataStartFrame	OrigNumFrames
50.179211469534	50.179211469534	4	33	mm	50.179211469534	53	       141
Frame#	Time	Sacral			L.Shoulder			Chest			R.Shoulder			Neck			R.ASIS			L.ASIS			R.Thigh.Superior			R.Thigh.Lateral			R.Thigh.Inferior			R.Patella			L.Thigh.Superior			L.Thigh.Lateral			L.Thigh.Inferior			L.Patella			L.Shank.Superior			L.Shank.Lateral			L.Shank.Inferior			R.Shank.Superior			R.Shank.Lateral			R.Shank.Inferior			R.Heel			R.Midfoot.Superior			R.Midfoot.Lateral			R.Toe			L.Heel			L.Midfoot.Lateral			L.Midfoot.Superior			L.Toe			L.Elbow			L.Wrist			R.Elbow			R.Wrist			
		X1	Y1	Z1	X2	Y2	Z2	X3	Y3	Z3	X4	Y4	Z4	X5	Y5	Z5	X6	Y6	Z6	X7	Y7	Z7	X8	Y8	Z8	X9	Y9	Z9	X10	Y10	Z10	X11	Y11	Z11	X12	Y12	Z12	X13	Y13	Z13	X14	Y14	Z14	X15	Y15	Z15	X16	Y16	Z16	X17	Y17	Z17	X18	Y18	Z18	X19	Y19	Z19	X20	Y20	Z20	X21	Y21	Z21	X22	Y22	Z22	X23	Y23	Z23	X24	Y24	Z24	X25	Y25	Z25	X26	Y26	Z26	X27	Y27	Z27	X28	Y28	Z28	X29	Y29	Z29	X30	Y30	Z30	X31	Y31	Z31	X32	Y32	Z32	X33	Y33	Z33	

53	21.466285714286	729.036520386908	975.396134824178	567.645325599670	913.163636008831	1414.014382751713	401.791228612170	1002.815041678854	1343.219694647579	569.484272233350	905.886627555390	1410.319816577253	738.425696255508	885.311963314312	1473.689297297995	561.812684245788	959.527085904566	925.071654405163	694.181103421846	954.453251556037	943.364583514323	419.495520427711	1021.634195861476	729.680061185342	651.375036416386	950.978498733740	607.324913809453	697.602601966580	1035.215598443464	568.172931468489	615.708171006389	1042.494020527129	469.425198945117	617.261098033842	1046.275564945300	767.378593333861	451.584202249194	1016.753557612681	639.988124792034	367.060859579773	1121.378528914917	584.441365441673	437.945518012820	1138.121839251224	492.225459221146	424.985746749204	1065.914812775708	427.474400679194	410.799563608124	919.862324120889	399.568977028694	363.103404901008	898.937395715518	267.952930984032	407.262247605758	993.054223251356	381.908617922370	613.768040451831	900.388510734573	289.324199356476	667.006144995854	921.914188997694	194.539488628937	596.737783314926	761.102380926370	44.640676278720	557.652973378740	934.223042193227	96.998944356837	597.019733102688	843.387812073606	37.735363119980	632.696844256181	1051.707679520741	41.716968284345	625.104895049680	706.002836546265	214.538071104801	447.272379313519	756.375210174902	173.539473579643	360.015549790894	862.384107691553	170.805584558602	377.150158165996	929.168864851102	56.390941947800	333.261439307138	928.199438575441	1055.485726765914	294.949746021703	1048.616007019042	828.827541005834	310.807441718259	917.973715002523	1056.315253558093	852.217788859215	1086.920521491441	857.813668113619	872.573280046304	
54	21.486214285714	727.737455398131	972.520685768010	571.032385035869	908.933258657609	1410.578455452216	401.759048800935	1001.302290335546	1340.812139064662	568.358264559950	907.054475769315	1408.470026699470	738.666303281473	883.667591184675	1471.185564848592	561.894203620921	959.862688021952	922.724885273332	694.835136274355	951.688881779829	941.609426824970	420.226824251000	1022.153468340787	727.706325297358	650.586318546237	952.675201419323	604.830669371726	697.142893051980	1035.954763046177	566.262251555143	613.935136760919	1043.355149129464	466.885682757895	614.994669412979	1045.574158604562	767.593184434903	452.154517620444	1017.489292494167	639.713389034735	368.117863134824	1123.013072691325	585.798284667773	438.851913758146	1141.567253813029	494.334952157841	425.809635557195	1071.653921807289	428.028906927681	411.211719740490	926.823074994217	394.701790840037	363.800321574879	911.699775242944	262.105428796624	407.121012290432	992.628469944205	379.567886973707	611.934355048516	899.259397805531	288.061037736533	666.061614448873	918.332152434739	193.148913230200	595.507331586632	755.260746842139	44.810668635931	557.513109010465	928.232978267154	96.685141771371	596.406386552232	837.504037161806	37.819951424363	632.549775496193	1045.857548871033	41.266482529316	625.108012324012	721.532002506615	199.191407628213	447.402717462327	773.559699618438	162.189333911775	359.435512362621	879.479955068816	164.766555087362	376.351429777165	951.873265462301	55.007813684235	330.661426048678	913.752429837539	1050.992040083674	297.424376694866	1011.634709819479	812.665381468738	309.597900406884	930.613439785661	1054.950995838186	852.861890031293	1113.317325651398	869.468154270673	868.254200483628	
55	21.506142857143	726.550295467059	970.337978132358	574.401773505761	904.620986403246	1407.671175205346	401.649777925265	999.957377736167	1338.900548289968	566.931094445686	908.715392993450	1407.209469675916	738.678361496492	882.246423694149	1469.200317712837	561.820184029917	960.306574086053	920.701826829806	695.125915566199	948.602070796964	940.324338870853	420.732410977939	1022.255770923902	725.877587573231	649.360383543709	953.740343001661	602.654430794556	696.390734818893	1035.794979518406	564.500635254421	611.752408334759	1043.148792542202	464.648848473127	612.290354726294	1044.283248724536	767.862279439747	452.547065714512	1017.308822317675	639.546626797487	369.080395398825	1123.297708521780	586.909710143240	439.806083207113	1143.548264184370	496.415174637527	426.693900918549	1076.407247905095	428.588950048090	411.536887783091	933.512438968463	388.855157329893	364.067928509826	925.152724155617	255.421050940388	406.513140842637	991.368820977987	377.539197443900	609.836817360304	897.630376743577	286.924405232582	664.994461869894	914.436777973338	191.920277262589	594.205758821571	749.391642938586	44.972679836204	557.420941121740	922.165371230115	96.323381319009	595.716056140816	831.610299803193	37.893111553214	632.437757189951	1039.992262795904	40.846089144785	625.092019529474	738.730523734381	182.002738780156	446.703692218939	792.549228422003	149.210492934106	358.221491112039	898.046807901983	157.634040123051	375.108281499402	976.449470493623	53.118152714433	327.989522930289	898.555849891235	1047.710584038455	299.215322456014	974.779236726984	800.417727202933	307.796606722293	943.000926527739	1054.649069761073	853.262379841068	1139.205411036601	884.294461718239	862.538074798765	
56	21.526071428571	725.496420528810	969.009109253410	577.770437166279	900.240528039675	1405.469837482822	401.469748692804	998.794354609626	1337.623675795450	565.178664321173	910.908062415663	1406.672682868989	738.430374793846	881.072612279459	1467.876631563376	561.599698457021	960.850978160957	919.145932816921	695.055794816153	945.210705214450	939.610781014648	421.012333061133	1021.859020998184	724.285288124590	647.825896982361	954.022602252485	600.921232569853	695.477019105686	1034.631426176741	562.968253185324	609.368180925866	1041.742117589531	462.808527740058	609.408524015656	1042.383759946909	768.282288773687	452.774136555505	1016.176280677926	639.604280352040	369.901721660112	1122.221933803121	587.856823617034	440.726737611045	1144.043767873954	498.544410627778	427.562218054535	1080.109943332151	429.281230491058	411.758675891497	939.955829369178	382.317903573425	363.872056494799	939.156615073458	248.335913539005	405.520708101579	989.150379640944	375.918743985458	607.674490003919	895.349415865540	285.987643290687	663.929802163942	910.160702759783	190.928462818290	592.954704517465	743.486918863837	45.136557938683	557.393809777719	916.045258672001	95.953410908650	595.027308170976	825.702513034124	37.954581806134	632.372996400787	1034.104323880437	40.472266206614	625.057920132340	757.493199308130	163.738528872859	445.248264242318	813.218663334480	135.239881176502	356.503082931390	917.886053561575	149.908396238292	373.573737701809	1002.521337317185	51.114260653947	325.556852036279	882.548501089933	1045.874669427198	300.294082296241	938.740042231770	792.189229644078	305.533750459225	955.152886851698	1055.524921702517	853.446123039122	1164.138889054427	902.366130654032	855.515112845461	
